<?xml version="1.0" encoding="UTF-8" standalone="no"?>
<svg
   xmlns:dc="http://purl.org/dc/elements/1.1/"
   xmlns:cc="http://creativecommons.org/ns#"
   xmlns:rdf="http://www.w3.org/1999/02/22-rdf-syntax-ns#"
   xmlns:svg="http://www.w3.org/2000/svg"
   xmlns="http://www.w3.org/2000/svg"
   xmlns:sodipodi="http://sodipodi.sourceforge.net/DTD/sodipodi-0.dtd"
   xmlns:inkscape="http://www.inkscape.org/namespaces/inkscape"
   version="1.0"
   width="256.000000pt"
   height="256.000000pt"
   viewBox="0 0 256.000000 256.000000"
   preserveAspectRatio="xMidYMid meet"
   id="svg6"
   sodipodi:docname="logo_256_simple.svg"
   inkscape:version="0.92.5 (2060ec1f9f, 2020-04-08)">
  <metadata
     id="metadata12">
    <rdf:RDF>
      <cc:Work
         rdf:about="">
        <dc:format>image/svg+xml</dc:format>
        <dc:type
           rdf:resource="http://purl.org/dc/dcmitype/StillImage" />
        <dc:title></dc:title>
      </cc:Work>
    </rdf:RDF>
  </metadata>
  <defs
     id="defs10" />
  <sodipodi:namedview
     pagecolor="#ffffff"
     bordercolor="#666666"
     borderopacity="1"
     objecttolerance="10"
     gridtolerance="10"
     guidetolerance="10"
     inkscape:pageopacity="0"
     inkscape:pageshadow="2"
     inkscape:window-width="1920"
     inkscape:window-height="1018"
     id="namedview8"
     showgrid="false"
     inkscape:zoom="2.765625"
     inkscape:cx="206.62634"
     inkscape:cy="177.72052"
     inkscape:window-x="0"
     inkscape:window-y="0"
     inkscape:window-maximized="1"
     inkscape:current-layer="svg6" />
  <g
     transform="translate(0.000000,256.000000) scale(0.100000,-0.100000)"
     fill="#000000"
     stroke="none"
     id="g4"
     style="fill:#743aa1;fill-opacity:1">
    <path
       style="fill:#743aa1;fill-opacity:1"
       d="m 1650,2429 c -94.3018,-134.0095 -108.3309,-303.636 -142.2031,-459.3227 -35.5378,-109.5357 -174.6582,-62.5419 -261.0393,-93.1159 -96.752,-13.7123 -194.7675,-24.7789 -292.55448,-16.9052 -90.11337,75.3178 -41.63297,213.2128 -71.07559,315.0786 13.58925,111.5699 -125.809,192.2624 -177.50228,77.5738 2.56806,-110.7193 37.77713,-219.6977 38.90323,-330.912 -57.2925,-88.2144 -208.82734,10.0559 -301.95872,0.3683 -85.95164,41.0302 -304.87473,7.1437 -193.19381,-116.9943 80.96269,-25.0278 168.40218,-39.9543 253.13742,-57.3252 77.31376,-27.3824 181.89143,4.789 241.41687,-49.0016 38.30779,-103.3044 5.39065,-217.984 7.24186,-325.7473 C 740.46644,1222.7981 726.97814,1071.7159 697.80604,925.05194 641.61875,797.51215 481.46572,803.69361 376.35333,739.62498 307.77889,703.88243 102.96769,631.05248 220.6866,541.65283 c 99.84818,-28.36127 187.27393,51.93221 277.17544,84.30048 54.17216,34.00621 170.39274,70.69791 118.81592,-37.7918 C 596.90402,484.90288 494.55041,368.15679 562.3375,267.55117 c 109.31148,-18.4463 142.5727,125.62079 181.13185,202.32255 38.98186,88.83285 48.33668,195.6964 98.38089,275.73043 101.37387,45.32056 213.05746,63.61011 319.30036,95.25204 139.0979,22.44264 305.7614,92.33842 432.3313,58.78478 42.0311,-147.81554 56.1365,-304.76159 114.3128,-447.04983 34.1622,-63.69372 83.4656,-227.00673 174.8773,-139.60603 90.8045,79.50659 -36.7586,180.22208 -46.2443,269.05395 -25.7678,112.01978 -81.7748,255.20479 -62.9229,353.89537 129.5313,19.2525 260.8534,15.54718 391.2452,23.44057 86.2455,87.9999 -12.6185,195.2268 -118.7959,154.2742 -107.0062,27.673 -243.2712,-55.4646 -327.9574,24.388 -36.2758,214.9902 -47.6323,434.2261 -60.9967,651.9628 97.1655,28.2799 190.0553,62.5118 284.1513,100.5228 127.8143,50.5566 254.8967,110.2538 364.8882,193.7736 90.0501,88.4003 -82.771,186.032 -145.1849,89.3228 -90.9859,-64.4177 -200.2903,-95.9571 -298.7991,-147.4652 -59.5061,-17.3744 -223.7855,-114.4054 -177.7312,9.9312 20.1762,120.4304 56.063,237.9524 69.6171,359.5359 C 1711.189,2431.6195 1706.884,2465.2441 1650,2429 Z m -154,-692 c 14.6669,-203.372 20.5526,-408.2236 59,-609 -43.5318,-107.4664 -196.8628,-50.7358 -285.1272,-97.1501 C 1136.3813,1003.2421 1005.5711,964.47815 873,933 c 12.03184,173.6641 45.59258,345.6847 45.55048,520.1773 17.94517,92.8915 -54.54387,295.3108 118.33652,247.2031 138.5062,0.6463 276.4305,20.2641 412.5784,42.804 l 23.3543,-1.0809 z"
       id="path2"
       inkscape:connector-curvature="0" />
  </g>
</svg>
